<?xml version="1.0" encoding="utf-8"?>
<!-- Generator: Adobe Illustrator 24.2.1, SVG Export Plug-In . SVG Version: 6.00 Build 0)  -->
<svg version="1.0" id="Layer_1" xmlns="http://www.w3.org/2000/svg" xmlns:xlink="http://www.w3.org/1999/xlink" x="0px" y="0px"
	 viewBox="0 0 134 56" enable-background="new 0 0 134 56" xml:space="preserve">
<g>
	<path fill="#003049" d="M0.583,3.354c0.546-0.05,1.094-0.094,1.639-0.148c1.25-0.122,2.499-0.194,3.756-0.224
		c1.098-0.03,2.196-0.021,3.294,0.111c1.929,0.228,3.739,0.788,5.298,1.989c1.505,1.158,2.303,2.715,2.533,4.579
		c0.186,1.501,0.027,2.951-0.605,4.336c-0.732,1.61-1.939,2.766-3.499,3.574c-0.154,0.08-0.31,0.167-0.476,0.226
		c-0.154,0.056-0.131,0.12-0.06,0.236c1.032,1.7,2.058,3.406,3.087,5.112c1.088,1.797,2.172,3.595,3.258,5.394
		c-0.055,0.064-0.124,0.032-0.184,0.032c-1.498,0.003-2.997,0-4.492,0.003c-0.154,0.003-0.226-0.049-0.302-0.182
		c-1.721-3.095-3.446-6.182-5.167-9.278c-0.079-0.144-0.159-0.196-0.324-0.183c-0.524,0.039-1.051,0.031-1.612,0.002
		c0.147-0.324,0.285-0.637,0.426-0.947c0.364-0.803,0.737-1.606,1.096-2.414c0.052-0.116,0.121-0.157,0.245-0.174
		c0.737-0.095,1.456-0.262,2.113-0.627c1.277-0.702,1.934-1.806,2.083-3.236c0.094-0.877,0.01-1.742-0.427-2.534
		c-0.649-1.169-1.683-1.798-2.955-2.084C8.344,6.702,7.369,6.734,6.388,6.769C5.907,6.789,5.426,6.83,4.95,6.912
		c-0.132,0.026-0.179,0.079-0.166,0.2C4.793,7.17,4.788,7.23,4.788,7.29c0,7.004-0.003,14.008,0.005,21.012
		c0,0.215-0.039,0.279-0.272,0.275c-1.312-0.011-2.626-0.003-3.939-0.003C0.583,20.166,0.583,11.761,0.583,3.354z"/>
	<path fill="#003049" d="M133.405,55.374c-0.888,0-1.775-0.008-2.663,0.003c-0.213,0.004-0.281-0.037-0.28-0.271
		c0.008-1.64,0-3.283,0.008-4.926c0.005-0.234-0.067-0.269-0.278-0.269c-0.917,0.013-1.833,0.011-2.75,0
		c-0.191,0-0.245,0.041-0.245,0.239c0.008,1.666,0.003,3.329,0.008,4.994c0,0.173-0.032,0.236-0.221,0.232
		c-0.851-0.011-1.706-0.008-2.558-0.002c-0.141,0.002-0.184-0.032-0.183-0.178c0.003-4.225,0.003-8.449,0-12.671
		c-0.002-0.152,0.042-0.184,0.183-0.181c0.86,0.006,1.72,0.008,2.578-0.003c0.174-0.003,0.201,0.055,0.199,0.212
		c-0.003,1.626,0.002,3.256-0.007,4.882c0,0.2,0.054,0.241,0.245,0.239c0.917-0.009,1.833-0.011,2.75,0
		c0.211,0.004,0.283-0.035,0.278-0.269c-0.008-1.596,0-3.198-0.008-4.794c-0.002-0.234,0.067-0.273,0.28-0.27
		c0.888,0.01,1.775,0.004,2.663,0.004C133.405,46.69,133.405,51.032,133.405,55.374z"/>
	<path fill="#65BDAE" d="M133.405,35.438c-0.444-0.203-0.858-0.472-1.285-0.713c-3.171-1.827-6.347-3.656-9.52-5.485
		c-0.069-0.039-0.147-0.064-0.199-0.153c0.466-0.277,0.93-0.554,1.394-0.827c3.126-1.844,6.252-3.683,9.377-5.524
		c0.07-0.044,0.136-0.116,0.233-0.103C133.405,26.901,133.405,31.169,133.405,35.438z"/>
	<path fill="#65BDAE" d="M133.405,13.3c-0.639-0.37-1.277-0.739-1.916-1.115c-2.933-1.724-5.858-3.454-8.787-5.18
		c-0.099-0.06-0.199-0.118-0.335-0.197c0.317-0.185,0.605-0.354,0.895-0.516c3.314-1.911,6.627-3.817,9.944-5.728
		c0.054-0.03,0.102-0.075,0.159-0.115c0.089,0.049,0.038,0.133,0.038,0.197c0.002,4.102,0.002,8.202,0.002,12.304
		C133.405,13.063,133.405,13.184,133.405,13.3z"/>
	<path fill="#003049" d="M133.405,20.563c-1.467-0.863-2.935-1.727-4.423-2.607c0.632-0.372,1.24-0.733,1.847-1.091
		c0.788-0.464,1.576-0.93,2.363-1.39c0.067-0.041,0.127-0.099,0.213-0.105C133.405,17.099,133.405,18.832,133.405,20.563z"/>
	<path fill="#003049" d="M90.976,17.769c0-3.507-0.007-7.013,0.005-10.519c0-0.232-0.069-0.272-0.28-0.272
		c-2.437,0.008-4.874,0.002-7.309,0.012c-0.22,0-0.263-0.064-0.263-0.267c0.012-1.133,0.012-2.259,0-3.389
		c0-0.168,0.05-0.203,0.206-0.203c6.49,0.004,12.976,0.004,19.462,0c0.203,0,0.199,0.051,0.131,0.204
		c-0.531,1.147-1.058,2.298-1.574,3.453c-0.067,0.151-0.146,0.202-0.307,0.202c-1.876-0.009-3.743-0.004-5.616-0.012
		c-0.204,0-0.25,0.056-0.25,0.255c0.005,7.027,0.005,14.051,0.012,21.076c0,0.229-0.064,0.272-0.275,0.267
		c-1.242-0.011-2.482-0.009-3.719,0c-0.188,0-0.23-0.049-0.23-0.226C90.976,24.82,90.976,21.295,90.976,17.769z"/>
	<path fill="#003049" d="M48.334,6.479c0.198-0.428,0.376-0.821,0.553-1.211c0.298-0.66,0.598-1.317,0.895-1.979
		c0.044-0.097,0.087-0.158,0.221-0.158c3.206,0.004,6.416,0.004,9.619,0c0.136,0,0.191,0.032,0.172,0.173
		c-0.01,0.059-0.003,0.129-0.003,0.196c0,5.807,0.008,11.615-0.003,17.422c-0.005,1.525-0.263,3.008-0.954,4.381
		c-0.91,1.802-2.378,2.936-4.326,3.37c-2.963,0.661-5.807,0.344-8.436-1.296c-0.173-0.106-0.216-0.185-0.124-0.384
		c0.474-0.994,0.937-1.997,1.394-2.999c0.072-0.167,0.119-0.191,0.287-0.09c1.438,0.895,3.003,1.352,4.699,1.2
		c1.721-0.153,2.641-0.994,3.037-2.674c0.142-0.601,0.208-1.214,0.208-1.83c0.008-4.626,0.003-9.252,0.012-13.879
		c0-0.217-0.074-0.246-0.256-0.243c-2.239,0.006-4.478,0.003-6.714,0.003C48.536,6.479,48.455,6.479,48.334,6.479z"/>
	<path fill="#003049" d="M103.013,17.95c2.333-1.343,4.646-2.677,6.962-4.01c1.42-0.818,2.839-1.633,4.259-2.455
		c0.109-0.06,0.191-0.097,0.317-0.022c3.635,2.149,7.271,4.292,10.911,6.438c0.017,0.008,0.033,0.023,0.057,0.038
		c-0.03,0.088-0.114,0.105-0.179,0.141c-3.587,2.118-7.172,4.23-10.759,6.347c-0.102,0.061-0.186,0.095-0.312,0.022
		c-3.717-2.148-7.44-4.292-11.162-6.433C103.084,18.001,103.059,17.982,103.013,17.95z"/>
	<path fill="#003049" d="M73.889,2.9c0.365,0.815,0.724,1.612,1.088,2.41c0.245,0.539,0.486,1.079,0.736,1.617
		c0.055,0.116,0.052,0.211,0,0.329c-0.605,1.321-1.208,2.644-1.81,3.967c-2.477,5.446-4.959,10.894-7.437,16.344
		c-0.134,0.29-0.268,0.58-0.401,0.876c-0.037,0.09-0.084,0.131-0.193,0.131c-1.208-0.003-2.42,0-3.667,0
		C66.1,20.007,69.992,11.457,73.889,2.9z"/>
	<path fill="#003049" d="M32.501,2.894c0.216,0.489,0.426,0.962,0.639,1.435c0.39,0.855,0.778,1.714,1.175,2.569
		c0.059,0.13,0.065,0.236,0.003,0.369c-0.607,1.314-1.205,2.633-1.805,3.949c-2.6,5.722-5.206,11.439-7.802,17.163
		c-0.065,0.146-0.141,0.198-0.307,0.198c-1.116-0.009-2.233-0.003-3.346-0.003c-0.07,0-0.141,0-0.245,0
		C24.718,19.999,28.604,11.457,32.501,2.894z"/>
	<path fill="#003049" d="M85.534,28.574c-1.461,0-2.891-0.003-4.321,0c-0.142,0.003-0.168-0.077-0.208-0.172
		c-0.546-1.291-1.091-2.585-1.639-3.878c-0.194-0.464-0.397-0.928-0.585-1.396c-0.057-0.15-0.129-0.204-0.3-0.204
		c-1.958,0.009-3.917,0.008-5.874,0.008c-0.082,0-0.163,0-0.248,0c-0.003-0.141,0.079-0.244,0.127-0.352
		c0.424-0.932,0.851-1.86,1.267-2.796c0.065-0.148,0.136-0.204,0.303-0.203c1.071,0.012,2.142,0.006,3.218,0.006
		c0.02-0.097-0.037-0.17-0.072-0.243c-0.494-1.179-0.996-2.356-1.5-3.533c-0.047-0.108-0.049-0.194,0-0.307
		c0.64-1.387,1.27-2.777,1.904-4.167c0.01-0.024,0.025-0.049,0.055-0.114C80.291,17.021,82.904,22.778,85.534,28.574z"/>
	<path fill="#003049" d="M36.275,11.234c2.63,5.788,5.243,11.55,7.871,17.339c-0.08,0-0.137,0-0.191,0
		c-1.359,0-2.714-0.006-4.075,0.003c-0.152,0-0.215-0.049-0.273-0.181c-0.729-1.744-1.47-3.488-2.202-5.234
		c-0.07-0.174-0.151-0.237-0.347-0.237c-1.951,0.009-3.905,0.008-5.856,0.008c-0.267,0-0.265,0-0.151-0.253
		c0.441-0.962,0.88-1.927,1.312-2.894c0.069-0.148,0.143-0.203,0.305-0.203c1.073,0.012,2.145,0.006,3.245,0.006
		c-0.147-0.351-0.287-0.688-0.432-1.022c-0.386-0.917-0.774-1.832-1.163-2.744c-0.044-0.099-0.065-0.179-0.018-0.29
		c0.642-1.395,1.274-2.794,1.912-4.189C36.223,11.311,36.249,11.281,36.275,11.234z"/>
	<path fill="#003049" d="M25.76,47.038c0,1.246,0.008,2.494-0.002,3.74c-0.003,0.624-0.047,1.247-0.218,1.849
		c-0.429,1.504-1.415,2.429-2.94,2.764c-0.996,0.22-1.998,0.215-2.987-0.038c-1.639-0.417-2.559-1.504-2.866-3.142
		c-0.09-0.46-0.107-0.921-0.107-1.379c-0.003-2.744,0.003-5.488-0.005-8.229c-0.003-0.221,0.062-0.262,0.268-0.259
		c0.81,0.01,1.614,0.015,2.424-0.003c0.22-0.002,0.26,0.067,0.258,0.272c-0.008,2.814-0.008,5.634-0.002,8.451
		c0,0.445,0.018,0.892,0.258,1.296c0.354,0.592,1.063,0.854,1.805,0.678c0.576-0.139,0.9-0.511,1.051-1.065
		c0.08-0.308,0.087-0.623,0.087-0.939c0-2.809,0-5.619-0.003-8.428c0-0.214,0.047-0.264,0.262-0.264
		c0.831,0.013,1.663,0.013,2.489,0.003c0.179-0.003,0.236,0.039,0.233,0.229C25.757,44.06,25.76,45.552,25.76,47.038z"/>
	<path fill="#003049" d="M94.264,48.838c0-2.083,0.005-4.166,0-6.248c-0.003-0.182,0.027-0.249,0.233-0.249
		c2.378,0.012,4.753,0.012,7.133,0.003c0.199-0.003,0.243,0.051,0.24,0.242c-0.013,0.583-0.01,1.173,0,1.761
		c0.003,0.196-0.04,0.258-0.248,0.256c-1.374-0.008-2.745,0.002-4.12-0.012c-0.231-0.002-0.276,0.07-0.273,0.283
		c0.013,0.844,0.013,1.685,0,2.528c0,0.182,0.045,0.236,0.23,0.236c1.284-0.012,2.571-0.004,3.855-0.012
		c0.166,0,0.228,0.038,0.221,0.217c-0.008,0.601-0.008,1.202,0,1.803c0.007,0.183-0.044,0.237-0.228,0.234
		c-1.275-0.009-2.556,0-3.83-0.012c-0.189,0-0.248,0.044-0.248,0.241c0.013,0.924,0.013,1.847,0,2.771
		c0,0.189,0.042,0.249,0.243,0.247c1.445-0.009,2.893,0,4.336-0.009c0.193,0,0.248,0.047,0.241,0.241
		c-0.012,0.593-0.012,1.188,0,1.782c0.007,0.206-0.059,0.235-0.245,0.235c-2.419-0.003-4.846-0.008-7.264,0
		c-0.213,0-0.283-0.037-0.28-0.271C94.27,53.02,94.264,50.928,94.264,48.838z"/>
	<path fill="#812C8D" d="M131.69,14.339c-0.887,0.524-1.755,1.037-2.626,1.551c-0.548,0.322-1.101,0.645-1.648,0.971
		c-0.09,0.054-0.166,0.079-0.276,0.011c-3.619-2.137-7.244-4.272-10.864-6.409c-0.03-0.017-0.062-0.039-0.116-0.078
		c0.275-0.159,0.526-0.309,0.781-0.457c1.17-0.676,2.34-1.346,3.506-2.021c0.124-0.075,0.218-0.082,0.352-0.006
		c3.572,2.111,7.145,4.214,10.713,6.319C131.57,14.257,131.622,14.294,131.69,14.339z"/>
	<path fill="#812C8D" d="M131.694,21.583c-1.227,0.726-2.425,1.433-3.625,2.139c-2.413,1.424-4.834,2.846-7.246,4.276
		c-0.147,0.09-0.251,0.08-0.392,0c-1.339-0.78-2.677-1.547-4.016-2.321c-0.08-0.044-0.166-0.093-0.267-0.155
		c0.789-0.466,1.557-0.919,2.321-1.369c2.859-1.686,5.719-3.369,8.573-5.057c0.163-0.099,0.276-0.109,0.449-0.008
		c1.327,0.794,2.662,1.576,3.991,2.362C131.543,21.486,131.603,21.527,131.694,21.583z"/>
	<path fill="#003049" d="M118.123,52.052c0,0.829-0.003,1.613,0.003,2.397c0.002,0.116-0.062,0.166-0.139,0.226
		c-0.639,0.474-1.368,0.727-2.152,0.82c-0.915,0.108-1.812,0.032-2.677-0.322c-0.982-0.406-1.72-1.104-2.281-1.991
		c-0.659-1.037-0.955-2.191-1.037-3.404c-0.092-1.383,0.008-2.743,0.494-4.051c0.476-1.278,1.235-2.34,2.467-3.005
		c0.815-0.444,1.699-0.576,2.615-0.532c0.867,0.041,1.693,0.261,2.469,0.648c0.082,0.041,0.146,0.077,0.142,0.191
		c-0.002,0.774,0,1.551,0,2.328c-0.099,0.026-0.159-0.044-0.223-0.08c-0.585-0.315-1.185-0.593-1.859-0.631
		c-1.222-0.073-2.211,0.577-2.705,1.748c-0.406,0.952-0.456,1.961-0.409,2.977c0.037,0.763,0.158,1.514,0.489,2.214
		c0.603,1.282,1.896,1.813,3.233,1.331c0.466-0.163,0.895-0.401,1.301-0.68C117.933,52.184,118.012,52.131,118.123,52.052z"/>
	<path fill="#003049" d="M83.365,49.998c0,1.716-0.003,3.434,0.005,5.15c0,0.181-0.047,0.234-0.23,0.23
		c-0.83-0.008-1.658-0.017-2.489,0.004c-0.238,0.005-0.268-0.077-0.265-0.283c0.005-3.403,0.003-6.806,0-10.21
		c0-0.333,0.039-0.287-0.29-0.292c-0.826-0.002-1.644-0.002-2.47,0.004c-0.163,0.002-0.21-0.039-0.204-0.208
		c0.012-0.614,0.005-1.232,0-1.845c0-0.144,0.022-0.205,0.188-0.202c2.846,0.002,5.694,0.002,8.539,0
		c0.153,0,0.184,0.044,0.184,0.183c-0.007,0.624-0.012,1.25,0,1.871c0.003,0.175-0.059,0.202-0.211,0.2
		c-0.845-0.006-1.688,0.003-2.534-0.006c-0.188-0.004-0.23,0.056-0.23,0.232C83.365,46.551,83.365,48.276,83.365,49.998z"/>
	<path fill="#003049" d="M45.002,48.838c0-2.083,0.002-4.166-0.005-6.248c-0.005-0.214,0.067-0.249,0.258-0.246
		c0.813,0.01,1.629,0.01,2.442,0c0.208-0.003,0.272,0.038,0.272,0.259c-0.01,3.379-0.007,6.76-0.007,10.14c0,0.29,0,0.29,0.278,0.29
		c1.42,0,2.849,0,4.271-0.003c0.166-0.002,0.223,0.035,0.221,0.215c-0.01,0.634-0.01,1.272,0,1.911
		c0.002,0.168-0.035,0.222-0.215,0.222c-2.429-0.003-4.857-0.008-7.289,0c-0.208,0.004-0.231-0.069-0.231-0.247
		c0.005-1.715,0.005-3.433,0.005-5.15C45.002,49.601,45.002,49.219,45.002,48.838z"/>
	<path fill="#003049" d="M33.904,48.838c0-2.073,0.002-4.151-0.003-6.226c-0.003-0.202,0.033-0.273,0.256-0.272
		c0.836,0.018,1.673,0.012,2.511,0.006c0.149-0.003,0.201,0.029,0.201,0.189c-0.007,4.218-0.007,8.434,0,12.652
		c0,0.161-0.057,0.19-0.201,0.189c-0.853-0.006-1.705-0.009-2.556,0.002c-0.183,0.004-0.211-0.064-0.211-0.226
		C33.905,53.046,33.904,50.943,33.904,48.838z"/>
	<path fill="#003049" d="M8.217,48.984c-0.315-0.275-0.674-0.484-1.074-0.685c0.114-0.064,0.203-0.111,0.288-0.159
		c0.441-0.256,0.816-0.58,1.076-1.02c0.793-1.352,0.354-3.179-0.974-4.09c-0.736-0.505-1.567-0.675-2.437-0.681
		c-1.41-0.004-2.819,0.004-4.23-0.002c-0.156-0.003-0.211,0.028-0.211,0.199c0.007,4.21,0.007,8.42,0,12.631
		c0,0.173,0.057,0.202,0.211,0.2c1.359-0.002,2.715-0.002,4.074-0.002c0.263,0,0.528-0.013,0.791-0.038
		c1.976-0.174,3.528-1.645,3.597-3.583C9.372,50.662,9.057,49.717,8.217,48.984z M3.787,44.462c0.357,0.009,0.717,0.004,1.073,0.08
		c0.608,0.129,1.016,0.593,1.056,1.213c0.037,0.614-0.005,1.194-0.578,1.583c-0.342,0.235-0.741,0.253-1.14,0.27
		c-0.58,0.024-0.58,0.02-0.58-0.552c0-0.334,0-0.674,0-1.008c0-0.47,0.003-0.938-0.003-1.408
		C3.615,44.506,3.651,44.461,3.787,44.462z M6.286,52.201c-0.144,0.507-0.486,0.825-0.99,0.967
		c-0.516,0.144-1.049,0.082-1.576,0.094c-0.099,0.002-0.102-0.055-0.102-0.126c0-1.093,0.003-2.184-0.003-3.275
		c0-0.097,0.037-0.131,0.131-0.131c0.203,0.006,0.411,0.003,0.669,0.003c0.24,0.008,0.535-0.017,0.82,0.059
		c0.56,0.14,0.902,0.507,1.056,1.044C6.422,51.289,6.417,51.75,6.286,52.201z"/>
	<path fill="#003049" d="M69.199,45.207c-0.515-1.012-1.249-1.817-2.288-2.322c-0.821-0.399-1.699-0.533-2.603-0.537
		c-1.195-0.002-2.392,0.006-3.588-0.008c-0.208,0-0.235,0.065-0.235,0.249c0.003,2.083,0.002,4.166,0.002,6.248
		c0,2.105,0.002,4.209-0.002,6.314c0,0.161,0.022,0.226,0.21,0.226c1.262-0.008,2.527-0.003,3.786-0.003
		c2.055-0.004,3.585-0.895,4.569-2.704c0.493-0.902,0.768-1.864,0.867-2.883C70.069,48.203,69.935,46.658,69.199,45.207z
		 M66.724,51.089c-0.191,0.754-0.531,1.411-1.254,1.798c-0.453,0.241-0.945,0.302-1.446,0.287c-0.181-0.004-0.417,0.082-0.528-0.036
		c-0.114-0.117-0.033-0.348-0.033-0.53c-0.007-1.246-0.003-2.492-0.003-3.737c0-1.369,0.003-2.743-0.003-4.113
		c-0.003-0.176,0.049-0.225,0.221-0.215c0.412,0.017,0.835-0.026,1.247,0.07c0.771,0.185,1.25,0.692,1.559,1.394
		c0.303,0.687,0.412,1.419,0.451,2.158C66.985,49.146,66.969,50.129,66.724,51.089z"/>
</g>
</svg>
